# xmcd
#
# Track frame offsets:
#	150
#	8115
#	34762
#	46457
#	59092
#	78820
#	100750
#	119432
#	145157
#	157065
#	173642
#	193182
#	211380
#	229270
#	244150
#	258032
#	274885
#	287762
#
# Disc length: 4273 seconds
# Revision: 0
# Processed by: cddbd v1.5.2PL0 Copyright (c) Steve Scherf et al.
# Submitted via: dBpowerAMP V12.0
#
DISCID=0310af12
DTITLE=Split Level - Take A Ride
DYEAR=1992
DGENRE=
TTITLE0=Opus 17
TTITLE1=Falling Away
TTITLE2=Joseph
TTITLE3=Black Water
TTITLE4=One By One
TTITLE5=Turning Of The Tide
TTITLE6=Driving My Blues
TTITLE7=V.U.
TTITLE8=Seventeen
TTITLE9=Lazy Morning
TTITLE10=Robkofsky
TTITLE11=Lady Blue Eyes
TTITLE12=This Kind Of Peace
TTITLE13=Easy Days
TTITLE14=Alone With You
TTITLE15=Ageless Question
TTITLE16=When Last You Came
TTITLE17=Event In The Flower Garden
EXTD=
EXTT0=
EXTT1=
EXTT2=
EXTT3=
EXTT4=
EXTT5=
EXTT6=
EXTT7=
EXTT8=
EXTT9=
EXTT10=
EXTT11=
EXTT12=
EXTT13=
EXTT14=
EXTT15=
EXTT16=
EXTT17=
PLAYORDER=
